<svg width="25" height="27" viewBox="0 0 25 27" fill="none" xmlns="http://www.w3.org/2000/svg">
<path d="M3.75001 26.4166C2.94793 26.4166 2.26154 26.1639 1.69084 25.6584C1.11918 25.1521 0.833344 24.5437 0.833344 23.8333V8.33331C0.833344 7.6229 1.11918 7.01495 1.69084 6.50948C2.26154 6.00315 2.94793 5.74998 3.75001 5.74998H6.66668C6.66668 4.32915 7.23786 3.11283 8.38022 2.10102C9.52258 1.08922 10.8958 0.583313 12.5 0.583313C14.1042 0.583313 15.4774 1.08922 16.6198 2.10102C17.7622 3.11283 18.3333 4.32915 18.3333 5.74998H21.25C22.0521 5.74998 22.739 6.00315 23.3106 6.50948C23.8813 7.01495 24.1667 7.6229 24.1667 8.33331V23.8333C24.1667 24.5437 23.8813 25.1521 23.3106 25.6584C22.739 26.1639 22.0521 26.4166 21.25 26.4166H3.75001ZM8.12501 12.2083C8.5382 12.2083 8.8848 12.0843 9.1648 11.8363C9.44383 11.5892 9.58334 11.2826 9.58334 10.9166V8.33331H6.66668V10.9166C6.66668 11.2826 6.80668 11.5892 7.08668 11.8363C7.36571 12.0843 7.71182 12.2083 8.12501 12.2083ZM9.58334 5.74998H15.4167C15.4167 5.03956 15.1313 4.43162 14.5606 3.92615C13.989 3.41981 13.3021 3.16665 12.5 3.16665C11.6979 3.16665 11.0115 3.41981 10.4408 3.92615C9.86918 4.43162 9.58334 5.03956 9.58334 5.74998ZM16.875 12.2083C17.2882 12.2083 17.6348 12.0843 17.9148 11.8363C18.1938 11.5892 18.3333 11.2826 18.3333 10.9166V8.33331H15.4167V10.9166C15.4167 11.2826 15.5567 11.5892 15.8367 11.8363C16.1157 12.0843 16.4618 12.2083 16.875 12.2083Z" fill="black"/>
</svg>
